<svg width="60" height="48" viewBox="0 0 60 48" fill="none" xmlns="http://www.w3.org/2000/svg">
<path d="M53.375 0.625H6.625C4.93425 0.625 3.31274 1.29665 2.11719 2.49219C0.92165 3.68774 0.25 5.30925 0.25 7V41C0.25 42.6908 0.92165 44.3123 2.11719 45.5078C3.31274 46.7034 4.93425 47.375 6.625 47.375H53.375C55.0658 47.375 56.6873 46.7034 57.8828 45.5078C59.0784 44.3123 59.75 42.6908 59.75 41V7C59.75 5.30925 59.0784 3.68774 57.8828 2.49219C56.6873 1.29665 55.0658 0.625 53.375 0.625ZM4.5 13.375H55.5V19.75H4.5V13.375ZM6.625 4.875H53.375C53.9386 4.875 54.4791 5.09888 54.8776 5.4974C55.2761 5.89591 55.5 6.43641 55.5 7V9.125H4.5V7C4.5 6.43641 4.72388 5.89591 5.1224 5.4974C5.52091 5.09888 6.06141 4.875 6.625 4.875ZM53.375 43.125H6.625C6.06141 43.125 5.52091 42.9011 5.1224 42.5026C4.72388 42.1041 4.5 41.5636 4.5 41V24H55.5V41C55.5 41.5636 55.2761 42.1041 54.8776 42.5026C54.4791 42.9011 53.9386 43.125 53.375 43.125ZM17.25 36.75C17.25 37.3136 17.0261 37.8541 16.6276 38.2526C16.2291 38.6511 15.6886 38.875 15.125 38.875H10.875C10.3114 38.875 9.77091 38.6511 9.3724 38.2526C8.97388 37.8541 8.75 37.3136 8.75 36.75C8.75 36.1864 8.97388 35.6459 9.3724 35.2474C9.77091 34.8489 10.3114 34.625 10.875 34.625H15.125C15.6886 34.625 16.2291 34.8489 16.6276 35.2474C17.0261 35.6459 17.25 36.1864 17.25 36.75ZM27.875 36.75C27.875 37.3136 27.6511 37.8541 27.2526 38.2526C26.8541 38.6511 26.3136 38.875 25.75 38.875H21.5C20.9364 38.875 20.3959 38.6511 19.9974 38.2526C19.5989 37.8541 19.375 37.3136 19.375 36.75C19.375 36.1864 19.5989 35.6459 19.9974 35.2474C20.3959 34.8489 20.9364 34.625 21.5 34.625H25.75C26.3136 34.625 26.8541 34.8489 27.2526 35.2474C27.6511 35.6459 27.875 36.1864 27.875 36.75Z" fill="#3A4FB3"/>
</svg>
