<svg width="31" height="32" viewBox="0 0 31 32" fill="none" xmlns="http://www.w3.org/2000/svg">
<path d="M0.916656 16C0.916656 24.0543 7.44561 30.5833 15.5 30.5833C23.5544 30.5833 30.0833 24.0543 30.0833 16C30.0833 7.94558 23.5544 1.41663 15.5 1.41663C7.44561 1.41663 0.916656 7.94558 0.916656 16Z" stroke="#1F274D" stroke-width="1.5" stroke-linecap="round" stroke-linejoin="round"/>
<path d="M16.9583 1.4895C16.9583 1.4895 21.3333 7.24992 21.3333 15.9999C21.3333 24.7499 16.9583 30.5103 16.9583 30.5103M14.0417 30.5103C14.0417 30.5103 9.66667 24.7499 9.66667 15.9999C9.66667 7.24992 14.0417 1.4895 14.0417 1.4895M1.83542 21.1041H29.1646M1.83542 10.8958H29.1646" stroke="#1F274D" stroke-width="1.5" stroke-linecap="round" stroke-linejoin="round"/>
</svg>
