<svg width="19" height="21" viewBox="0 0 19 21" fill="none" xmlns="http://www.w3.org/2000/svg">
<path d="M10.75 1.75V2.53125C13.6016 3.11719 15.75 5.61719 15.75 8.625V9.36719C15.75 11.2031 16.4141 13 17.625 14.3672L17.8984 14.6797C18.25 15.0703 18.3281 15.5781 18.1328 16.0469C17.9375 16.4766 17.4688 16.75 17 16.75H2C1.49219 16.75 1.02344 16.4766 0.828125 16.0469C0.632812 15.5781 0.710938 15.0703 1.0625 14.6797L1.33594 14.3672C2.54688 13 3.25 11.2031 3.25 9.36719V8.625C3.25 5.61719 5.35938 3.11719 8.25 2.53125V1.75C8.25 1.08594 8.79688 0.5 9.5 0.5C10.1641 0.5 10.75 1.08594 10.75 1.75ZM9.5 20.5C8.83594 20.5 8.17188 20.2656 7.70312 19.7969C7.23438 19.3281 7 18.6641 7 18H12C12 18.6641 11.7266 19.3281 11.2578 19.7969C10.7891 20.2656 10.125 20.5 9.5 20.5Z" fill="#C4709E"/>
</svg>
