<svg width="37" height="43" viewBox="0 0 37 43" fill="none" xmlns="http://www.w3.org/2000/svg">
<path fill-rule="evenodd" clip-rule="evenodd" d="M16.1871 0.876709C13.6457 0.87693 11.1412 1.49841 8.8826 2.68929C6.62396 3.88017 4.67667 5.60593 3.20319 7.72257C1.72971 9.83922 0.772764 12.2854 0.412199 14.857C0.0516335 17.4285 0.297901 20.051 1.13046 22.5055C1.96301 24.96 3.35771 27.1754 5.19819 28.9669C7.03867 30.7583 9.27157 32.0739 11.7106 32.8038C14.1496 33.5337 16.724 33.6568 19.219 33.1628C21.7141 32.6688 24.0573 31.5721 26.0534 29.964L32.9009 36.9637C33.2545 37.3128 33.7281 37.506 34.2197 37.5017C34.7114 37.4973 35.1816 37.2957 35.5293 36.9404C35.8769 36.585 36.0741 36.1043 36.0784 35.6017C36.0827 35.0992 35.8937 34.615 35.5521 34.2535L28.7046 27.2539C30.5571 24.8516 31.7105 21.9646 32.0329 18.9235C32.3553 15.8824 31.8336 12.8099 30.5275 10.0577C29.2215 7.30553 27.1838 4.98481 24.6477 3.36115C22.1116 1.7375 19.1796 0.876504 16.1871 0.876709ZM3.99962 17.1684C3.99962 13.8642 5.28366 10.6954 7.56926 8.359C9.85486 6.02261 12.9548 4.71004 16.1871 4.71004C19.4194 4.71004 22.5194 6.02261 24.805 8.359C27.0906 10.6954 28.3746 13.8642 28.3746 17.1684C28.3746 20.4725 27.0906 23.6414 24.805 25.9777C22.5194 28.3141 19.4194 29.6267 16.1871 29.6267C12.9548 29.6267 9.85486 28.3141 7.56926 25.9777C5.28366 23.6414 3.99962 20.4725 3.99962 17.1684Z" fill="#FFD84D"/>
</svg>
